<?xml version="1.0" encoding="UTF-8"?>
<svg id="Layer_1" xmlns="http://www.w3.org/2000/svg" xmlns:xlink="http://www.w3.org/1999/xlink" version="1.1" viewBox="0 0 3840 2160">
  <!-- Generator: Adobe Illustrator 29.2.1, SVG Export Plug-In . SVG Version: 2.1.0 Build 116)  -->
  <defs>
    <style>
      .st0 {
        fill: #792fff;
      }

      .st1 {
        fill: url(#linear-gradient);
      }

      .st2 {
        fill: #1f5b9b;
      }

      .st3 {
        fill: none;
        stroke: #fff;
        stroke-dasharray: 434.1 144.7 0 0;
        stroke-miterlimit: 10;
        stroke-width: 150px;
      }

      .st4 {
        fill: #0384ff;
      }
    </style>
    <linearGradient id="linear-gradient" x1="2113.8" y1="90.7" x2="2677.6" y2="654.6" gradientTransform="translate(0 707.7)" gradientUnits="userSpaceOnUse">
      <stop offset="0" stop-color="#7b2eff"/>
      <stop offset="1" stop-color="#0086ff"/>
    </linearGradient>
  </defs>
  <g id="Layer_2">
    <rect class="st2" x="-4.6" y="-8.3" width="3845.6" height="2181.3"/>
  </g>
  <g id="Layer_11" data-name="Layer_1">
    <circle class="st3" cx="2395.7" cy="1080" r="552.7"/>
    <circle class="st1" cx="2395.7" cy="1080.3" r="398.7"/>
    <path class="st0" d="M930.5,1105.3h681.3c21.5,0,38.9,17.4,38.9,38.9h0c0,21.5-17.4,38.9-38.9,38.9h-681.3c-21.5,0-38.9-17.4-38.9-38.9h0c0-21.5,17.4-38.9,38.9-38.9Z"/>
    <path class="st4" d="M1131.7,642.8h475.8c21.5,0,38.9,17.4,38.9,38.9h0c0,21.5-17.4,38.9-38.9,38.9h-475.8c-21.5,0-38.9-17.4-38.9-38.9h0c0-21.5,17.4-38.9,38.9-38.9Z"/>
    <path class="st4" d="M1131.7,1548.1h475.8c21.5,0,38.9,17.4,38.9,38.9h0c0,21.5-17.4,38.9-38.9,38.9h-475.8c-21.5,0-38.9-17.4-38.9-38.9h0c0-21.5,17.4-38.9,38.9-38.9Z"/>
  </g>
</svg>